<svg xmlns="http://www.w3.org/2000/svg" xmlns:xlink="http://www.w3.org/1999/xlink" viewBox="0 0 178.64 166.78"><defs><style>.cls-1{fill:none;}.cls-2{clip-path:url(#clip-path);}.cls-3{fill:#654ff0;}.cls-4{font-size:35.8px;fill:#393939;font-family:OpenSans-Semibold, Open Sans;letter-spacing:0.09em;}.cls-5{font-weight:700;}.cls-6{font-family:OpenSans, Open Sans;letter-spacing:0.15em;}</style><clipPath id="clip-path"><path class="cls-1" d="M77,.58c0-.2,0-.39,0-.58H35.51V107.62H143.13V0H101.64c0,.19,0,.38,0,.58M86.89,96.1,81.65,70.17h-.09L75.91,96.1H68.69L60.48,58h7.13l4.87,25.93h.09L78.45,58h6.68l5.28,26.25h.09L96.06,58h7L94,96.1Zm39.27,0-2.43-8.48H110.91L109,96.1h-7.17L111.1,58h11.25l11.2,38.1Z"/></clipPath></defs><title>Artboard 1</title><g id="Layer_1" data-name="Layer 1"><g id="icon"><g class="cls-2"><path class="cls-3" d="M162.19,39.88v-2.7H160.9V32.25h-.07v-.68l-.22,0V30.3h-.36v1.19l-1.62-.2c-1.86-.49-2.75-1.46-3-2.77l-.25.36-2.57.64-2.35-.59a2.73,2.73,0,0,1-.1-.41l-.25.35-2.61.65-2.31-.58a3.25,3.25,0,0,1-.11-.42,3.88,3.88,0,0,1-.23.33l-2.65.67L139.93,29c0-.14-.07-.28-.1-.43a3.71,3.71,0,0,1-.23.32l-2.69.68L134.66,29a3.13,3.13,0,0,1-.1-.44,5.44,5.44,0,0,1-1.86,1.78h-.29v.16a7.15,7.15,0,0,1-3.26.67L132,32.55l-1.45-.26h-2.29v.41l1.08.42v.6h-1.84V32.25h-.29V30.3h-.36v3.42h-1.27V18.81H125v-.43h-1.48v.43h-1.38v-.22h-2.44v.22h-.42v5h-.38v-.22h-1v.22h-.16v9.87h-1.44V32.25h-.29V30.3h-.37v3.42h-.59V25.81h-.71V24.56h-.11v1.25h-.51v-.29h-1.36v-.31h.23v-.66h-.23v-.66h.23v-.66h-.23v-.65h.23v-.66h-.23v-.66h.23V20.6h-.23v-.66h.23v-.65h-.23v-.66h.23V18h-.23v-.66h.23v-.66h-.23V16h.23v-.66h-.23v-.66h.23V14h-.23v-.66h.23v-.65h-.23v-.66h.23v-.66h-.23v-.66h.23v-.66h-.23V9.42h.23V8.76h-.23V7.47l-1.92-2h-3.9v.26h-.43V7.47h-.39V28.62h-2v-.26H102.2v.26h-.41v5.1H100.3V23.13h-.78v-.2h-.2v.2H98v-.27h-.78v.27H97V33.72h-.84V7.47h-.27V7H94.55V5.15H91.16V7H89.7v.44h-.16v13.7h-.93v-.4H87.1v.4h-.45V23.9H85.53v-.12H84.36v.12H84v4.19h-.09v-.47l-1.06-.88h-.09l-1.06.88v.47H78.9L77.59,29.5h-.15v.17h.15v4h-.85v-.91h-.52V18.31h-.81V18h-.32V11.77h-.85V10.58H70.52v.23h-.13l-1.37,1v.39h-.57v1.43h-.62v-.87h-.55v-.24H62.76v.24H60.15v.87h-.72V28.12h-3v-.83H55.32V23.16H53.43v-.3H49.18v.3H48.7v9.51H47.05V37H45.41V25.46H43.79V14.34H43.3v-.83h-.55v-.32H39.42v-.71H27.94V13h-1.1v1.61h-.56v.48H26v.45h.28V16H26v.45h.28v.41H26v.45h.28v.41H26v.44h.28v.41H26V19h.28v.41H26v.44h.28v.41H26v.45h.28v.41H26v.44h.28V22H26v.45h.28v.41H26v.44h.28v.41H26v.45h.28v.41H26V25h.28v.4H26v.45h.28v.41H26v.45h.28v.41H26v.44h.28V28H26v.45h.28v.41H26v.44h.28v.41H26v.45h.28v.41H26V31h.28v.41H26v.45h.28v.41H26v.44h.28v.41H26v.45h.28v.41H26v.44h.28v.41H26v.45h.28v.41H26v.45h.28v.21H24.45V37.9h-.7V35.7h-.59V34.23h.17v-.38h-.17v-.38h.17v-.38h-.17v-.38h.17v-.38h-.17V32h.17v-.38h-.17v-.38h.17v-.38h-.17v-.38h.17v-.38h-.17v-.38h.17V29.3h-.17v-.38h.17v-.38h-.17v-.38h.17v-.38h-.17V27.4h.17V27h-.17v-.38h.17v-.38h-.17v-.38h.17V25.5h-.17v-.38h.17v-.37h-.17v-.38h.17V24h-.17v-.38h.17v-.38h-.17v-.38h.17v-.38h-.17v-.38h.17v-.38h-.17v-.38h.17V21h-.17v-.38h.17v-.38h-.17v-.38h.17v-.37h-.17v-.38h.17v-.38h-.17V18.3h.17v-.38h-.17v-.38h.17v-.38h-.17v-.38h.17V16.4h-.17V16h.17v-.38h-.17v-.38h.17v-.38h-.17V14.5h.17v-.37h-.17v-.38h.17v-.38h-.17V13h.17v-.38h-.17v-.38h.17v-.38h-.17v-.38h.17v-.38h-.17v-.45h-.33v-.51h.33V9.79H21.7v-2h-.28V7H19.56v.41h-.2L16.58,9.47v.32h-1v3.28h-.62v9.2H14v.58h-.15v.38H14v.38h-.15V24H12.71v5.73H11.22V16.33H9.74V15.15H9.5v.22H9.25v-.22H9v.22H8.76v-.22H8.52v.22H8.28v-.22H8v.22H7.79v-.22H7.54v.22H7.3v-.22H7.06v.22H6.81v-.22H6.57v.22H6.32v-.22H6.08v.22H5.83v-.22H5.59v.22H5.35v-.22H5.1v.22H4.86v-.22H4.61v.22H4.37v-.22H4.13v.22H3.88v-.22H3.64v.22H3.39v-.22H3.15v.22H2.9v-.22H2.66v.22H2.42v-.22H2.17v1.18H-1v7.42H-2.12v-.24H-3.77v.24h-.64v6.44h-2V31h-1.3V30.5h-.49V29h-6.29v.87h-2V31h-.68V27.75H-18.7V5.93h-.38l-2-6.83-8.19-3.66L-30.61-1.3h-.89V.87l-2.08,5.06h-.31V30.66h-.73v4.42h-.46v-1.8h-2.38v1.84h-1V33.7H-40v2.69H-41.1V32.18h-2.22V8.37h-.28V9h-.48V8.64h.14l-2.62-6.5h0V1.46h-.29V2.1l-7-.77V.47h-.29V1.3h0L-57,8.64h.13V9h-.85v-.6H-58V29.8H-59.3v.33H-60V14.75h-.2v-.16l-3.11-2.08h-.13l-3.11,2.08v.16h-.2v1.34H-67V18.4h-.54v4.41h-.14v.37h.14v3.31h-.14v.37h.14v6.19H-69.8V35h-2.7v2.91h.8v2h-1V52.81H163.58V39.88Zm-7-10.79A5.25,5.25,0,0,1,153,30.67v-.74Zm-2.49.87v.81l-.46.13a3.23,3.23,0,0,1-1.74-1.77ZM150,29.07a5.35,5.35,0,0,1-2.28,1.62v-.76Zm-2.54.89v.82c-.14,0-.28.09-.42.12a3.17,3.17,0,0,1-1.73-1.75Zm-2.72-.91a5.37,5.37,0,0,1-2.32,1.65v-.77Zm-2.58.91v.83l-.4.11A3.17,3.17,0,0,1,140,29.16ZM139.45,29a5.25,5.25,0,0,1-2.37,1.68v-.78Zm-2.63.93v.84l-.36.1a3.24,3.24,0,0,1-1.72-1.72ZM47.05,39.23v.65H45.41v-.65Z"/><rect class="cls-3" x="23.01" y="36.8" width="139.56" height="78.02"/></g><polygon class="cls-3" points="115.39 67.39 112.28 81.37 121.96 81.37 118.38 67.39 115.39 67.39"/></g><text class="cls-4" transform="translate(0 156.68)"><tspan class="cls-5">CT</tspan><tspan class="cls-6" x="49.39" y="0">WASM</tspan></text></g></svg>